<?xml version="1.0" encoding="UTF-8"?><svg id="Layer_1" xmlns="http://www.w3.org/2000/svg" viewBox="0 0 144 144"><defs><style>.cls-1{fill:#0033a1;}</style></defs><path class="cls-1" d="M59.98,88.08h-10.46c-1.36,0-2.47-1.11-2.47-2.47h0c0-1.36,1.11-2.47,2.47-2.47h10.46c1.36,0,2.47,1.11,2.47,2.47h0c0,1.37-1.1,2.47-2.47,2.47Z"/><path class="cls-1" d="M97.84,88.08h-10.46c-1.36,0-2.47-1.11-2.47-2.47h0c0-1.36,1.11-2.47,2.47-2.47h10.46c1.36,0,2.47,1.11,2.47,2.47h0c0,1.37-1.11,2.47-2.47,2.47Z"/><path class="cls-1" d="M78.91,88.08h-10.46c-1.36,0-2.47-1.11-2.47-2.47h0c0-1.36,1.11-2.47,2.47-2.47h10.46c1.36,0,2.47,1.11,2.47,2.47h0c0,1.37-1.11,2.47-2.47,2.47Z"/><path class="cls-1" d="M72.09,35.84c14.76,0,29.52,0,44.28,0,6.99,0,10.6,3.6,10.61,10.61,.02,17.05,.02,34.09,0,51.14,0,7-3.62,10.59-10.63,10.59-29.63,0-59.26,0-88.89,0-6.77,0-10.44-3.65-10.45-10.44-.02-17.16-.02-34.31,0-51.46,0-6.78,3.69-10.42,10.47-10.42,14.87-.02,29.74,0,44.61,0Zm-50,29.42v3.32c0,9.56,0,19.12,0,28.67,0,4.88,1.01,5.89,5.93,5.9,18.02,.02,36.05,0,54.07,0,11.4,0,22.8,.02,34.2,0,4.49,0,5.6-1.14,5.61-5.56,.02-9.45,0-18.9,0-28.35v-3.98c-33.39,0-66.44,0-99.83,0Zm0-15.32H121.63c.98-7.98,.04-9.1-7.48-9.1H60.79c-10.95,0-21.91-.02-32.87,0-4.85,0-5.84,1.07-5.84,5.99,0,.96,0,1.92,0,3.1Z"/></svg>